<mxfile host="app.diagrams.net" agent="Mozilla/5.0 (Windows NT 10.0; Win64; x64) AppleWebKit/537.36 (KHTML, like Gecko) Chrome/131.0.0.0 Safari/537.36 Edg/131.0.0.0" version="24.8.6">
  <diagram name="Page-1" id="GkX9UJlipA2kMxpvh0Tq">
    <mxGraphModel dx="1163" dy="980" grid="1" gridSize="10" guides="1" tooltips="1" connect="1" arrows="1" fold="1" page="0" pageScale="1" pageWidth="850" pageHeight="1100" math="0" shadow="0">
      <root>
        <mxCell id="0" />
        <mxCell id="1" parent="0" />
        <mxCell id="K6Zz5flsMj7VZYERKFwA-1" value="Presentation Layer" style="shape=folder;fontStyle=1;spacingTop=10;tabWidth=120;tabHeight=20;tabPosition=left;html=1;whiteSpace=wrap;verticalAlign=top;align=left;fontSize=20;fillColor=#fff2cc;strokeColor=#d6b656;" vertex="1" parent="1">
          <mxGeometry x="120" y="-110" width="660" height="170" as="geometry" />
        </mxCell>
        <mxCell id="K6Zz5flsMj7VZYERKFwA-2" value="Application Layer" style="shape=folder;fontStyle=1;spacingTop=10;tabWidth=120;tabHeight=20;tabPosition=left;html=1;whiteSpace=wrap;verticalAlign=top;align=left;fontSize=20;fillColor=#fff2cc;strokeColor=#d6b656;" vertex="1" parent="1">
          <mxGeometry x="120" y="130" width="660" height="170" as="geometry" />
        </mxCell>
        <mxCell id="K6Zz5flsMj7VZYERKFwA-3" value="Data Access Layer" style="shape=folder;fontStyle=1;spacingTop=10;tabWidth=120;tabHeight=20;tabPosition=left;html=1;whiteSpace=wrap;verticalAlign=top;align=left;fontSize=20;fillColor=#fff2cc;strokeColor=#d6b656;" vertex="1" parent="1">
          <mxGeometry x="120" y="370" width="660" height="170" as="geometry" />
        </mxCell>
        <mxCell id="K6Zz5flsMj7VZYERKFwA-4" value="Database Layer" style="shape=folder;fontStyle=1;spacingTop=10;tabWidth=120;tabHeight=20;tabPosition=left;html=1;whiteSpace=wrap;verticalAlign=top;align=left;fontSize=20;fillColor=#fff2cc;strokeColor=#d6b656;" vertex="1" parent="1">
          <mxGeometry x="120" y="610" width="660" height="170" as="geometry" />
        </mxCell>
        <mxCell id="K6Zz5flsMj7VZYERKFwA-5" value="Frontend (Next.js)" style="shape=folder;fontStyle=1;spacingTop=10;tabWidth=40;tabHeight=14;tabPosition=left;html=1;whiteSpace=wrap;verticalAlign=top;fontSize=16;fillColor=#fad7ac;strokeColor=#b46504;" vertex="1" parent="1">
          <mxGeometry x="350" y="-50" width="200" height="90" as="geometry" />
        </mxCell>
        <mxCell id="K6Zz5flsMj7VZYERKFwA-6" value="Backend (Node.js)" style="shape=folder;fontStyle=1;spacingTop=10;tabWidth=40;tabHeight=14;tabPosition=left;html=1;whiteSpace=wrap;verticalAlign=top;fontSize=16;fillColor=#fad7ac;strokeColor=#b46504;" vertex="1" parent="1">
          <mxGeometry x="230" y="200" width="200" height="90" as="geometry" />
        </mxCell>
        <mxCell id="K6Zz5flsMj7VZYERKFwA-7" value="Backend (FastAPI)" style="shape=folder;fontStyle=1;spacingTop=10;tabWidth=40;tabHeight=14;tabPosition=left;html=1;whiteSpace=wrap;verticalAlign=top;fontSize=16;fillColor=#fad7ac;strokeColor=#b46504;" vertex="1" parent="1">
          <mxGeometry x="490" y="200" width="200" height="90" as="geometry" />
        </mxCell>
        <mxCell id="K6Zz5flsMj7VZYERKFwA-8" value="MySQL" style="shape=folder;fontStyle=1;spacingTop=10;tabWidth=40;tabHeight=14;tabPosition=left;html=1;whiteSpace=wrap;verticalAlign=top;fontSize=16;fillColor=#fad7ac;strokeColor=#b46504;" vertex="1" parent="1">
          <mxGeometry x="230" y="683" width="200" height="90" as="geometry" />
        </mxCell>
        <mxCell id="K6Zz5flsMj7VZYERKFwA-9" value="MongoDB" style="shape=folder;fontStyle=1;spacingTop=10;tabWidth=40;tabHeight=14;tabPosition=left;html=1;whiteSpace=wrap;verticalAlign=top;fontSize=16;fillColor=#fad7ac;strokeColor=#b46504;" vertex="1" parent="1">
          <mxGeometry x="490" y="683" width="200" height="90" as="geometry" />
        </mxCell>
        <mxCell id="K6Zz5flsMj7VZYERKFwA-10" value="MySQL Access" style="shape=folder;fontStyle=1;spacingTop=10;tabWidth=40;tabHeight=14;tabPosition=left;html=1;whiteSpace=wrap;verticalAlign=top;fontSize=16;fillColor=#fad7ac;strokeColor=#b46504;" vertex="1" parent="1">
          <mxGeometry x="240" y="430" width="200" height="90" as="geometry" />
        </mxCell>
        <mxCell id="K6Zz5flsMj7VZYERKFwA-11" value="MongoDB Access" style="shape=folder;fontStyle=1;spacingTop=10;tabWidth=40;tabHeight=14;tabPosition=left;html=1;whiteSpace=wrap;verticalAlign=top;fontSize=16;fillColor=#fad7ac;strokeColor=#b46504;" vertex="1" parent="1">
          <mxGeometry x="490" y="430" width="200" height="90" as="geometry" />
        </mxCell>
        <mxCell id="K6Zz5flsMj7VZYERKFwA-12" value="" style="endArrow=classic;html=1;rounded=0;exitX=0.5;exitY=1;exitDx=0;exitDy=0;exitPerimeter=0;strokeWidth=2;" edge="1" parent="1" source="K6Zz5flsMj7VZYERKFwA-1">
          <mxGeometry width="50" height="50" relative="1" as="geometry">
            <mxPoint x="360" y="220" as="sourcePoint" />
            <mxPoint x="450" y="150" as="targetPoint" />
            <Array as="points">
              <mxPoint x="450" y="130" />
            </Array>
          </mxGeometry>
        </mxCell>
        <mxCell id="K6Zz5flsMj7VZYERKFwA-13" value="" style="endArrow=classic;html=1;rounded=0;exitX=0.5;exitY=1;exitDx=0;exitDy=0;exitPerimeter=0;strokeWidth=2;" edge="1" parent="1">
          <mxGeometry width="50" height="50" relative="1" as="geometry">
            <mxPoint x="360" y="300" as="sourcePoint" />
            <mxPoint x="360" y="390" as="targetPoint" />
            <Array as="points">
              <mxPoint x="360" y="370" />
            </Array>
          </mxGeometry>
        </mxCell>
        <mxCell id="K6Zz5flsMj7VZYERKFwA-14" value="" style="endArrow=classic;html=1;rounded=0;entryX=0.606;entryY=1.004;entryDx=0;entryDy=0;entryPerimeter=0;strokeWidth=2;dashed=1;" edge="1" parent="1" target="K6Zz5flsMj7VZYERKFwA-2">
          <mxGeometry width="50" height="50" relative="1" as="geometry">
            <mxPoint x="520" y="390" as="sourcePoint" />
            <mxPoint x="520" y="303" as="targetPoint" />
          </mxGeometry>
        </mxCell>
        <mxCell id="K6Zz5flsMj7VZYERKFwA-15" value="" style="endArrow=classic;html=1;rounded=0;exitX=0.5;exitY=1;exitDx=0;exitDy=0;exitPerimeter=0;strokeWidth=2;" edge="1" parent="1">
          <mxGeometry width="50" height="50" relative="1" as="geometry">
            <mxPoint x="361" y="539" as="sourcePoint" />
            <mxPoint x="361" y="629" as="targetPoint" />
            <Array as="points">
              <mxPoint x="361" y="609" />
            </Array>
          </mxGeometry>
        </mxCell>
        <mxCell id="K6Zz5flsMj7VZYERKFwA-16" value="" style="endArrow=classic;html=1;rounded=0;entryX=0.606;entryY=1.004;entryDx=0;entryDy=0;entryPerimeter=0;strokeWidth=2;dashed=1;" edge="1" parent="1">
          <mxGeometry width="50" height="50" relative="1" as="geometry">
            <mxPoint x="521" y="629" as="sourcePoint" />
            <mxPoint x="521" y="540" as="targetPoint" />
          </mxGeometry>
        </mxCell>
      </root>
    </mxGraphModel>
  </diagram>
</mxfile>
